# MagicaVoxel @ Ephtracy

# group
o 

# material
mtllib Fence-1.mtl
usemtl palette

# normals
vn -1 0 0
vn 1 0 0
vn 0 0 1
vn 0 0 -1
vn 0 -1 0
vn 0 1 0

# texcoords
vt 0.458984 0.5
vt 0.462891 0.5
vt 0.466797 0.5

# verts
v 0.1 0.3 0
v 0.1 0.3 -0.2
v 0.1 0.4 0
v 0.1 0.4 -0.1
v 0.1 0.5 0
v 0.1 0.5 -0.1
v 0.1 0.5 -0.2
v 0.1 1.2 0
v 0.1 1.2 -0.2
v 0.1 1.3 0
v 0.1 1.3 -0.1
v 0.1 1.4 0
v 0.1 1.4 -0.1
v 0.1 1.4 -0.2
v 0.2 0 -0.1
v 0.2 0 -0.2
v 0.2 0.3 -0.1
v 0.2 0.3 -0.2
v 0.2 0.5 -0.1
v 0.2 0.5 -0.2
v 0.2 1.2 -0.1
v 0.2 1.2 -0.2
v 0.2 1.4 -0.1
v 0.2 1.4 -0.2
v 0.2 1.5 -0.1
v 0.2 1.5 -0.2
v 0.2 1.6 -0.1
v 0.2 1.6 -0.2
v 0.2 1.7 -0.1
v 0.2 1.7 -0.2
v 0.2 1.9 -0.1
v 0.2 1.9 -0.2
v 0.3 1.9 -0.1
v 0.3 1.9 -0.2
v 0.3 2 -0.1
v 0.3 2 -0.2
v 1.5 1.9 -0.1
v 1.5 1.9 -0.2
v 1.5 2 -0.1
v 1.5 2 -0.2
v 1.6 0 -0.1
v 1.6 0 -0.2
v 1.6 0.3 -0.1
v 1.6 0.3 -0.2
v 1.6 0.5 -0.1
v 1.6 0.5 -0.2
v 1.6 1.2 -0.1
v 1.6 1.2 -0.2
v 1.6 1.4 -0.1
v 1.6 1.4 -0.2
v 1.6 1.5 -0.1
v 1.6 1.5 -0.2
v 1.6 1.6 -0.1
v 1.6 1.6 -0.2
v 1.6 1.7 -0.1
v 1.6 1.7 -0.2
v 1.6 1.9 -0.1
v 1.6 1.9 -0.2
v 1.7 0.3 0
v 1.7 0.3 -0.2
v 1.7 0.4 0
v 1.7 0.4 -0.1
v 1.7 0.5 0
v 1.7 0.5 -0.1
v 1.7 0.5 -0.2
v 1.7 1.2 0
v 1.7 1.2 -0.2
v 1.7 1.3 0
v 1.7 1.3 -0.1
v 1.7 1.4 0
v 1.7 1.4 -0.1
v 1.7 1.4 -0.2
v 0.1 0.3 0
v 0.1 0.4 0
v 0.1 0.5 0
v 0.1 1.2 0
v 0.1 1.3 0
v 0.1 1.4 0
v 1.7 0.3 0
v 1.7 0.4 0
v 1.7 0.5 0
v 1.7 1.2 0
v 1.7 1.3 0
v 1.7 1.4 0
v 0.2 0 -0.1
v 0.2 0.3 -0.1
v 0.2 0.5 -0.1
v 0.2 1.2 -0.1
v 0.2 1.4 -0.1
v 0.2 1.5 -0.1
v 0.2 1.6 -0.1
v 0.2 1.7 -0.1
v 0.2 1.9 -0.1
v 0.3 1.5 -0.1
v 0.3 1.6 -0.1
v 0.3 1.7 -0.1
v 0.3 1.9 -0.1
v 0.3 2 -0.1
v 0.4 0 -0.1
v 0.4 0.3 -0.1
v 0.4 0.5 -0.1
v 0.4 1.2 -0.1
v 0.4 1.4 -0.1
v 0.4 1.6 -0.1
v 0.4 2 -0.1
v 0.5 0 -0.1
v 0.5 0.3 -0.1
v 0.5 0.5 -0.1
v 0.5 1.2 -0.1
v 0.5 1.4 -0.1
v 0.5 1.7 -0.1
v 0.5 2 -0.1
v 0.6 1.7 -0.1
v 0.6 1.8 -0.1
v 0.7 0 -0.1
v 0.7 0.3 -0.1
v 0.7 0.5 -0.1
v 0.7 1.2 -0.1
v 0.7 1.4 -0.1
v 0.7 1.8 -0.1
v 0.7 2 -0.1
v 0.8 0 -0.1
v 0.8 0.3 -0.1
v 0.8 0.5 -0.1
v 0.8 1.2 -0.1
v 0.8 1.4 -0.1
v 0.8 1.7 -0.1
v 0.8 2 -0.1
v 1 0 -0.1
v 1 0.3 -0.1
v 1 0.5 -0.1
v 1 1.2 -0.1
v 1 1.4 -0.1
v 1 1.7 -0.1
v 1 2 -0.1
v 1.1 0 -0.1
v 1.1 0.3 -0.1
v 1.1 0.5 -0.1
v 1.1 1.2 -0.1
v 1.1 1.4 -0.1
v 1.1 1.8 -0.1
v 1.1 2 -0.1
v 1.2 1.7 -0.1
v 1.2 1.8 -0.1
v 1.3 0 -0.1
v 1.3 0.3 -0.1
v 1.3 0.5 -0.1
v 1.3 1.2 -0.1
v 1.3 1.4 -0.1
v 1.3 1.7 -0.1
v 1.3 2 -0.1
v 1.4 0 -0.1
v 1.4 0.3 -0.1
v 1.4 0.5 -0.1
v 1.4 1.2 -0.1
v 1.4 1.4 -0.1
v 1.4 1.6 -0.1
v 1.4 2 -0.1
v 1.5 1.5 -0.1
v 1.5 1.6 -0.1
v 1.5 1.7 -0.1
v 1.5 1.9 -0.1
v 1.5 2 -0.1
v 1.6 0 -0.1
v 1.6 0.3 -0.1
v 1.6 0.5 -0.1
v 1.6 1.2 -0.1
v 1.6 1.4 -0.1
v 1.6 1.5 -0.1
v 1.6 1.6 -0.1
v 1.6 1.7 -0.1
v 1.6 1.9 -0.1
v 0.1 0.3 -0.2
v 0.1 0.5 -0.2
v 0.1 1.2 -0.2
v 0.1 1.4 -0.2
v 0.2 0 -0.2
v 0.2 0.3 -0.2
v 0.2 0.5 -0.2
v 0.2 1.2 -0.2
v 0.2 1.4 -0.2
v 0.2 1.5 -0.2
v 0.2 1.6 -0.2
v 0.2 1.7 -0.2
v 0.2 1.9 -0.2
v 0.3 1.5 -0.2
v 0.3 1.6 -0.2
v 0.3 1.7 -0.2
v 0.3 1.9 -0.2
v 0.3 2 -0.2
v 0.4 0 -0.2
v 0.4 1.6 -0.2
v 0.4 2 -0.2
v 0.5 0 -0.2
v 0.5 1.7 -0.2
v 0.5 2 -0.2
v 0.6 1.7 -0.2
v 0.6 1.8 -0.2
v 0.7 0 -0.2
v 0.7 1.8 -0.2
v 0.7 2 -0.2
v 0.8 0 -0.2
v 0.8 1.7 -0.2
v 0.8 2 -0.2
v 1 0 -0.2
v 1 1.7 -0.2
v 1 2 -0.2
v 1.1 0 -0.2
v 1.1 1.8 -0.2
v 1.1 2 -0.2
v 1.2 1.7 -0.2
v 1.2 1.8 -0.2
v 1.3 0 -0.2
v 1.3 1.7 -0.2
v 1.3 2 -0.2
v 1.4 0 -0.2
v 1.4 1.6 -0.2
v 1.4 2 -0.2
v 1.5 1.5 -0.2
v 1.5 1.6 -0.2
v 1.5 1.7 -0.2
v 1.5 1.9 -0.2
v 1.5 2 -0.2
v 1.6 0 -0.2
v 1.6 0.3 -0.2
v 1.6 0.5 -0.2
v 1.6 1.2 -0.2
v 1.6 1.4 -0.2
v 1.6 1.5 -0.2
v 1.6 1.6 -0.2
v 1.6 1.7 -0.2
v 1.6 1.9 -0.2
v 1.7 0.3 -0.2
v 1.7 0.5 -0.2
v 1.7 1.2 -0.2
v 1.7 1.4 -0.2
v 0.2 0 -0.1
v 0.4 0 -0.1
v 0.5 0 -0.1
v 0.7 0 -0.1
v 0.8 0 -0.1
v 1 0 -0.1
v 1.1 0 -0.1
v 1.3 0 -0.1
v 1.4 0 -0.1
v 1.6 0 -0.1
v 0.2 0 -0.2
v 0.4 0 -0.2
v 0.5 0 -0.2
v 0.7 0 -0.2
v 0.8 0 -0.2
v 1 0 -0.2
v 1.1 0 -0.2
v 1.3 0 -0.2
v 1.4 0 -0.2
v 1.6 0 -0.2
v 0.1 0.3 0
v 1.7 0.3 0
v 0.2 0.3 -0.1
v 0.4 0.3 -0.1
v 0.5 0.3 -0.1
v 0.7 0.3 -0.1
v 0.8 0.3 -0.1
v 1 0.3 -0.1
v 1.1 0.3 -0.1
v 1.3 0.3 -0.1
v 1.4 0.3 -0.1
v 1.6 0.3 -0.1
v 0.1 0.3 -0.2
v 0.2 0.3 -0.2
v 1.6 0.3 -0.2
v 1.7 0.3 -0.2
v 0.1 1.2 0
v 1.7 1.2 0
v 0.2 1.2 -0.1
v 0.4 1.2 -0.1
v 0.5 1.2 -0.1
v 0.7 1.2 -0.1
v 0.8 1.2 -0.1
v 1 1.2 -0.1
v 1.1 1.2 -0.1
v 1.3 1.2 -0.1
v 1.4 1.2 -0.1
v 1.6 1.2 -0.1
v 0.1 1.2 -0.2
v 0.2 1.2 -0.2
v 1.6 1.2 -0.2
v 1.7 1.2 -0.2
v 0.1 0.5 0
v 1.7 0.5 0
v 0.1 0.5 -0.1
v 0.2 0.5 -0.1
v 0.4 0.5 -0.1
v 0.5 0.5 -0.1
v 0.7 0.5 -0.1
v 0.8 0.5 -0.1
v 1 0.5 -0.1
v 1.1 0.5 -0.1
v 1.3 0.5 -0.1
v 1.4 0.5 -0.1
v 1.6 0.5 -0.1
v 1.7 0.5 -0.1
v 0.1 0.5 -0.2
v 0.2 0.5 -0.2
v 1.6 0.5 -0.2
v 1.7 0.5 -0.2
v 0.1 1.4 0
v 1.7 1.4 0
v 0.1 1.4 -0.1
v 0.2 1.4 -0.1
v 0.4 1.4 -0.1
v 0.5 1.4 -0.1
v 0.7 1.4 -0.1
v 0.8 1.4 -0.1
v 1 1.4 -0.1
v 1.1 1.4 -0.1
v 1.3 1.4 -0.1
v 1.4 1.4 -0.1
v 1.6 1.4 -0.1
v 1.7 1.4 -0.1
v 0.1 1.4 -0.2
v 0.2 1.4 -0.2
v 1.6 1.4 -0.2
v 1.7 1.4 -0.2
v 0.2 1.9 -0.1
v 0.3 1.9 -0.1
v 1.5 1.9 -0.1
v 1.6 1.9 -0.1
v 0.2 1.9 -0.2
v 0.3 1.9 -0.2
v 1.5 1.9 -0.2
v 1.6 1.9 -0.2
v 0.3 2 -0.1
v 0.4 2 -0.1
v 0.5 2 -0.1
v 0.7 2 -0.1
v 0.8 2 -0.1
v 1 2 -0.1
v 1.1 2 -0.1
v 1.3 2 -0.1
v 1.4 2 -0.1
v 1.5 2 -0.1
v 0.3 2 -0.2
v 0.4 2 -0.2
v 0.5 2 -0.2
v 0.7 2 -0.2
v 0.8 2 -0.2
v 1 2 -0.2
v 1.1 2 -0.2
v 1.3 2 -0.2
v 1.4 2 -0.2
v 1.5 2 -0.2

# faces
f 3/2/1 2/2/1 1/2/1
f 4/2/1 2/2/1 3/2/1
f 5/1/1 4/1/1 3/1/1
f 6/2/1 2/2/1 4/2/1
f 6/1/1 4/1/1 5/1/1
f 7/2/1 2/2/1 6/2/1
f 10/2/1 9/2/1 8/2/1
f 11/2/1 9/2/1 10/2/1
f 12/1/1 11/1/1 10/1/1
f 13/2/1 9/2/1 11/2/1
f 13/1/1 11/1/1 12/1/1
f 14/2/1 9/2/1 13/2/1
f 17/2/1 16/2/1 15/2/1
f 18/2/1 16/2/1 17/2/1
f 21/2/1 20/2/1 19/2/1
f 22/2/1 20/2/1 21/2/1
f 25/2/1 24/2/1 23/2/1
f 26/2/1 24/2/1 25/2/1
f 27/1/1 26/1/1 25/1/1
f 28/1/1 26/1/1 27/1/1
f 29/2/1 28/2/1 27/2/1
f 30/2/1 28/2/1 29/2/1
f 31/1/1 30/1/1 29/1/1
f 32/1/1 30/1/1 31/1/1
f 35/1/1 34/1/1 33/1/1
f 36/1/1 34/1/1 35/1/1
f 37/1/2 38/1/2 39/1/2
f 39/1/2 38/1/2 40/1/2
f 41/2/2 42/2/2 43/2/2
f 43/2/2 42/2/2 44/2/2
f 45/2/2 46/2/2 47/2/2
f 47/2/2 46/2/2 48/2/2
f 49/2/2 50/2/2 51/2/2
f 51/2/2 50/2/2 52/2/2
f 51/1/2 52/1/2 53/1/2
f 53/1/2 52/1/2 54/1/2
f 53/2/2 54/2/2 55/2/2
f 55/2/2 54/2/2 56/2/2
f 55/1/2 56/1/2 57/1/2
f 57/1/2 56/1/2 58/1/2
f 59/2/2 60/2/2 61/2/2
f 61/2/2 60/2/2 62/2/2
f 61/1/2 62/1/2 63/1/2
f 62/2/2 60/2/2 64/2/2
f 63/1/2 62/1/2 64/1/2
f 64/2/2 60/2/2 65/2/2
f 66/2/2 67/2/2 68/2/2
f 68/2/2 67/2/2 69/2/2
f 68/1/2 69/1/2 70/1/2
f 69/2/2 67/2/2 71/2/2
f 70/1/2 69/1/2 71/1/2
f 71/2/2 67/2/2 72/2/2
f 79/2/3 74/2/3 73/2/3
f 80/1/3 75/1/3 74/1/3
f 80/2/3 74/2/3 79/2/3
f 81/1/3 75/1/3 80/1/3
f 82/2/3 77/2/3 76/2/3
f 83/1/3 78/1/3 77/1/3
f 83/2/3 77/2/3 82/2/3
f 84/1/3 78/1/3 83/1/3
f 94/2/3 90/2/3 89/2/3
f 94/1/3 91/1/3 90/1/3
f 95/2/3 92/2/3 91/2/3
f 95/1/3 91/1/3 94/1/3
f 96/1/3 93/1/3 92/1/3
f 96/2/3 92/2/3 95/2/3
f 97/1/3 93/1/3 96/1/3
f 99/2/3 86/2/3 85/2/3
f 100/2/3 86/2/3 99/2/3
f 101/2/3 88/2/3 87/2/3
f 102/2/3 88/2/3 101/2/3
f 103/2/3 95/2/3 94/2/3
f 103/2/3 94/2/3 89/2/3
f 104/1/3 98/1/3 97/1/3
f 104/2/3 95/2/3 103/2/3
f 104/1/3 96/1/3 95/1/3
f 104/1/3 97/1/3 96/1/3
f 105/1/3 98/1/3 104/1/3
f 106/3/3 100/3/3 99/3/3
f 107/3/3 100/3/3 106/3/3
f 108/3/3 102/3/3 101/3/3
f 109/3/3 102/3/3 108/3/3
f 110/3/3 104/3/3 103/3/3
f 110/3/3 105/3/3 104/3/3
f 111/3/3 105/3/3 110/3/3
f 112/3/3 105/3/3 111/3/3
f 113/2/3 111/2/3 110/2/3
f 113/1/3 112/1/3 111/1/3
f 114/1/3 112/1/3 113/1/3
f 115/2/3 107/2/3 106/2/3
f 116/2/3 107/2/3 115/2/3
f 117/2/3 109/2/3 108/2/3
f 118/2/3 109/2/3 117/2/3
f 119/2/3 113/2/3 110/2/3
f 119/2/3 114/2/3 113/2/3
f 120/1/3 112/1/3 114/1/3
f 120/2/3 114/2/3 119/2/3
f 121/1/3 112/1/3 120/1/3
f 122/3/3 116/3/3 115/3/3
f 123/3/3 116/3/3 122/3/3
f 124/3/3 118/3/3 117/3/3
f 125/3/3 118/3/3 124/3/3
f 126/3/3 120/3/3 119/3/3
f 126/3/3 121/3/3 120/3/3
f 127/3/3 121/3/3 126/3/3
f 128/3/3 121/3/3 127/3/3
f 129/2/3 123/2/3 122/2/3
f 130/2/3 123/2/3 129/2/3
f 131/2/3 125/2/3 124/2/3
f 132/2/3 125/2/3 131/2/3
f 133/2/3 127/2/3 126/2/3
f 134/1/3 128/1/3 127/1/3
f 134/2/3 127/2/3 133/2/3
f 135/1/3 128/1/3 134/1/3
f 136/3/3 130/3/3 129/3/3
f 137/3/3 130/3/3 136/3/3
f 138/3/3 132/3/3 131/3/3
f 139/3/3 132/3/3 138/3/3
f 140/3/3 134/3/3 133/3/3
f 140/3/3 135/3/3 134/3/3
f 141/3/3 135/3/3 140/3/3
f 142/3/3 135/3/3 141/3/3
f 143/2/3 141/2/3 140/2/3
f 144/1/3 142/1/3 141/1/3
f 144/2/3 141/2/3 143/2/3
f 145/2/3 137/2/3 136/2/3
f 146/2/3 137/2/3 145/2/3
f 147/2/3 139/2/3 138/2/3
f 148/2/3 139/2/3 147/2/3
f 149/2/3 143/2/3 140/2/3
f 150/1/3 144/1/3 143/1/3
f 150/2/3 143/2/3 149/2/3
f 151/1/3 142/1/3 144/1/3
f 151/1/3 144/1/3 150/1/3
f 152/3/3 146/3/3 145/3/3
f 153/3/3 146/3/3 152/3/3
f 154/3/3 148/3/3 147/3/3
f 155/3/3 148/3/3 154/3/3
f 156/3/3 150/3/3 149/3/3
f 156/3/3 151/3/3 150/3/3
f 157/3/3 151/3/3 156/3/3
f 158/3/3 151/3/3 157/3/3
f 159/2/3 157/2/3 156/2/3
f 160/1/3 158/1/3 157/1/3
f 160/2/3 157/2/3 159/2/3
f 161/1/3 158/1/3 160/1/3
f 162/1/3 158/1/3 161/1/3
f 163/1/3 158/1/3 162/1/3
f 164/2/3 153/2/3 152/2/3
f 165/2/3 153/2/3 164/2/3
f 166/2/3 155/2/3 154/2/3
f 167/2/3 155/2/3 166/2/3
f 168/2/3 159/2/3 156/2/3
f 169/1/3 160/1/3 159/1/3
f 169/2/3 159/2/3 168/2/3
f 170/2/3 161/2/3 160/2/3
f 170/1/3 160/1/3 169/1/3
f 171/1/3 162/1/3 161/1/3
f 171/2/3 161/2/3 170/2/3
f 172/1/3 162/1/3 171/1/3
f 173/2/4 174/2/4 178/2/4
f 178/2/4 174/2/4 179/2/4
f 175/2/4 176/2/4 180/2/4
f 180/2/4 176/2/4 181/2/4
f 178/2/4 179/2/4 186/2/4
f 177/2/4 178/2/4 186/2/4
f 179/2/4 180/2/4 186/2/4
f 182/1/4 183/1/4 186/1/4
f 181/2/4 182/2/4 186/2/4
f 180/2/4 181/2/4 186/2/4
f 183/2/4 184/2/4 187/2/4
f 186/1/4 183/1/4 187/1/4
f 184/1/4 185/1/4 188/1/4
f 187/2/4 184/2/4 188/2/4
f 188/1/4 185/1/4 189/1/4
f 186/2/4 187/2/4 191/2/4
f 177/2/4 186/2/4 191/2/4
f 189/1/4 190/1/4 192/1/4
f 191/2/4 187/2/4 192/2/4
f 188/1/4 189/1/4 192/1/4
f 187/1/4 188/1/4 192/1/4
f 192/1/4 190/1/4 193/1/4
f 191/3/4 192/3/4 194/3/4
f 192/3/4 193/3/4 194/3/4
f 194/3/4 193/3/4 195/3/4
f 195/3/4 193/3/4 196/3/4
f 194/2/4 195/2/4 197/2/4
f 195/1/4 196/1/4 197/1/4
f 197/1/4 196/1/4 198/1/4
f 194/2/4 197/2/4 199/2/4
f 197/2/4 198/2/4 199/2/4
f 198/1/4 196/1/4 200/1/4
f 199/2/4 198/2/4 200/2/4
f 200/1/4 196/1/4 201/1/4
f 199/3/4 200/3/4 202/3/4
f 200/3/4 201/3/4 202/3/4
f 202/3/4 201/3/4 203/3/4
f 203/3/4 201/3/4 204/3/4
f 202/2/4 203/2/4 205/2/4
f 203/1/4 204/1/4 206/1/4
f 205/2/4 203/2/4 206/2/4
f 206/1/4 204/1/4 207/1/4
f 205/3/4 206/3/4 208/3/4
f 206/3/4 207/3/4 208/3/4
f 208/3/4 207/3/4 209/3/4
f 209/3/4 207/3/4 210/3/4
f 208/2/4 209/2/4 211/2/4
f 209/1/4 210/1/4 212/1/4
f 211/2/4 209/2/4 212/2/4
f 208/2/4 211/2/4 213/2/4
f 211/1/4 212/1/4 214/1/4
f 213/2/4 211/2/4 214/2/4
f 212/1/4 210/1/4 215/1/4
f 214/1/4 212/1/4 215/1/4
f 213/3/4 214/3/4 216/3/4
f 214/3/4 215/3/4 216/3/4
f 216/3/4 215/3/4 217/3/4
f 217/3/4 215/3/4 218/3/4
f 216/2/4 217/2/4 219/2/4
f 217/1/4 218/1/4 220/1/4
f 219/2/4 217/2/4 220/2/4
f 220/1/4 218/1/4 221/1/4
f 221/1/4 218/1/4 222/1/4
f 222/1/4 218/1/4 223/1/4
f 216/2/4 219/2/4 224/2/4
f 224/2/4 219/2/4 225/2/4
f 225/2/4 219/2/4 226/2/4
f 226/2/4 219/2/4 227/2/4
f 227/2/4 219/2/4 228/2/4
f 219/1/4 220/1/4 229/1/4
f 228/2/4 219/2/4 229/2/4
f 220/2/4 221/2/4 230/2/4
f 229/1/4 220/1/4 230/1/4
f 221/1/4 222/1/4 231/1/4
f 230/2/4 221/2/4 231/2/4
f 231/1/4 222/1/4 232/1/4
f 225/2/4 226/2/4 233/2/4
f 233/2/4 226/2/4 234/2/4
f 227/2/4 228/2/4 235/2/4
f 235/2/4 228/2/4 236/2/4
f 247/2/5 238/2/5 237/2/5
f 248/3/5 239/3/5 238/3/5
f 248/2/5 238/2/5 247/2/5
f 249/2/5 240/2/5 239/2/5
f 249/3/5 239/3/5 248/3/5
f 250/3/5 241/3/5 240/3/5
f 250/2/5 240/2/5 249/2/5
f 251/2/5 242/2/5 241/2/5
f 251/3/5 241/3/5 250/3/5
f 252/3/5 243/3/5 242/3/5
f 252/2/5 242/2/5 251/2/5
f 253/2/5 244/2/5 243/2/5
f 253/3/5 243/3/5 252/3/5
f 254/3/5 245/3/5 244/3/5
f 254/2/5 244/2/5 253/2/5
f 255/2/5 246/2/5 245/2/5
f 255/3/5 245/3/5 254/3/5
f 256/2/5 246/2/5 255/2/5
f 259/2/5 258/2/5 257/2/5
f 260/2/5 258/2/5 259/2/5
f 261/2/5 258/2/5 260/2/5
f 262/2/5 258/2/5 261/2/5
f 263/2/5 258/2/5 262/2/5
f 264/2/5 258/2/5 263/2/5
f 265/2/5 258/2/5 264/2/5
f 266/2/5 258/2/5 265/2/5
f 267/2/5 258/2/5 266/2/5
f 268/2/5 258/2/5 267/2/5
f 269/2/5 259/2/5 257/2/5
f 270/2/5 259/2/5 269/2/5
f 271/2/5 258/2/5 268/2/5
f 272/2/5 258/2/5 271/2/5
f 275/2/5 274/2/5 273/2/5
f 276/2/5 274/2/5 275/2/5
f 277/2/5 274/2/5 276/2/5
f 278/2/5 274/2/5 277/2/5
f 279/2/5 274/2/5 278/2/5
f 280/2/5 274/2/5 279/2/5
f 281/2/5 274/2/5 280/2/5
f 282/2/5 274/2/5 281/2/5
f 283/2/5 274/2/5 282/2/5
f 284/2/5 274/2/5 283/2/5
f 285/2/5 275/2/5 273/2/5
f 286/2/5 275/2/5 285/2/5
f 287/2/5 274/2/5 284/2/5
f 288/2/5 274/2/5 287/2/5
f 289/1/6 290/1/6 291/1/6
f 291/1/6 290/1/6 292/1/6
f 292/1/6 290/1/6 293/1/6
f 293/1/6 290/1/6 294/1/6
f 294/1/6 290/1/6 295/1/6
f 295/1/6 290/1/6 296/1/6
f 296/1/6 290/1/6 297/1/6
f 297/1/6 290/1/6 298/1/6
f 298/1/6 290/1/6 299/1/6
f 299/1/6 290/1/6 300/1/6
f 300/1/6 290/1/6 301/1/6
f 301/1/6 290/1/6 302/1/6
f 291/2/6 292/2/6 303/2/6
f 303/2/6 292/2/6 304/2/6
f 301/2/6 302/2/6 305/2/6
f 305/2/6 302/2/6 306/2/6
f 307/1/6 308/1/6 309/1/6
f 309/1/6 308/1/6 310/1/6
f 310/1/6 308/1/6 311/1/6
f 311/1/6 308/1/6 312/1/6
f 312/1/6 308/1/6 313/1/6
f 313/1/6 308/1/6 314/1/6
f 314/1/6 308/1/6 315/1/6
f 315/1/6 308/1/6 316/1/6
f 316/1/6 308/1/6 317/1/6
f 317/1/6 308/1/6 318/1/6
f 318/1/6 308/1/6 319/1/6
f 319/1/6 308/1/6 320/1/6
f 309/2/6 310/2/6 321/2/6
f 321/2/6 310/2/6 322/2/6
f 319/2/6 320/2/6 323/2/6
f 323/2/6 320/2/6 324/2/6
f 325/1/6 326/1/6 329/1/6
f 329/1/6 326/1/6 330/1/6
f 327/1/6 328/1/6 331/1/6
f 331/1/6 328/1/6 332/1/6
f 333/1/6 334/1/6 343/1/6
f 334/3/6 335/3/6 344/3/6
f 343/1/6 334/1/6 344/1/6
f 335/1/6 336/1/6 345/1/6
f 344/3/6 335/3/6 345/3/6
f 336/3/6 337/3/6 346/3/6
f 345/1/6 336/1/6 346/1/6
f 337/1/6 338/1/6 347/1/6
f 346/3/6 337/3/6 347/3/6
f 338/3/6 339/3/6 348/3/6
f 347/1/6 338/1/6 348/1/6
f 339/1/6 340/1/6 349/1/6
f 348/3/6 339/3/6 349/3/6
f 340/3/6 341/3/6 350/3/6
f 349/1/6 340/1/6 350/1/6
f 341/1/6 342/1/6 351/1/6
f 350/3/6 341/3/6 351/3/6
f 351/1/6 342/1/6 352/1/6
