# MagicaVoxel @ Ephtracy

# group
o 

# material
mtllib Rocks-0.mtl
usemtl palette

# normals
vn 0 0 -1
vn 0 0 1
vn -1 0 0
vn 1 0 0
vn 0 -1 0
vn 0 1 0

# texcoords
vt 0.447266 0.5
vt 0.451172 0.5

# verts
v -0.8 0.1 -1
v -0.4 0.1 -1
v -0.8 0.2 -1
v -0.4 0.2 -1
v -0.9 0.1 -0.9
v -0.8 0.1 -0.9
v -0.4 0.1 -0.9
v -0.3 0.1 -0.9
v 0.2 0.1 -0.9
v 0.9 0.1 -0.9
v -0.9 0.2 -0.9
v -0.8 0.2 -0.9
v -0.4 0.2 -0.9
v -0.3 0.2 -0.9
v 0.2 0.2 -0.9
v 0.9 0.2 -0.9
v 0.1 0.1 -0.8
v 0.2 0.1 -0.8
v 0.9 0.1 -0.8
v 1 0.1 -0.8
v 0.1 0.2 -0.8
v 0.2 0.2 -0.8
v 0.9 0.2 -0.8
v 1 0.2 -0.8
v -0.7 0.1 -0.4
v -0.2 0.1 -0.4
v -0.7 0.2 -0.4
v -0.2 0.2 -0.4
v -0.8 0.1 -0.3
v -0.7 0.1 -0.3
v -0.2 0.1 -0.3
v -0.1 0.1 -0.3
v -0.8 0.2 -0.3
v -0.7 0.2 -0.3
v -0.2 0.2 -0.3
v -0.1 0.2 -0.3
v -0.9 0.1 -0.2
v -0.8 0.1 -0.2
v -0.1 0.1 -0.2
v 0 0.1 -0.2
v -0.9 0.2 -0.2
v -0.8 0.2 -0.2
v -0.1 0.2 -0.2
v 0 0.2 -0.2
v 0.2 0.1 0.2
v 0.6 0.1 0.2
v 0.2 0.2 0.2
v 0.6 0.2 0.2
v 0.1 0.1 0.3
v 0.2 0.1 0.3
v 0.6 0.1 0.3
v 0.7 0.1 0.3
v 0.1 0.2 0.3
v 0.2 0.2 0.3
v 0.6 0.2 0.3
v 0.7 0.2 0.3
v 0.7 0.1 0.4
v 0.8 0.1 0.4
v 0.7 0.2 0.4
v 0.8 0.2 0.4
v -0.8 0.1 0.6
v -0.5 0.1 0.6
v -0.8 0.2 0.6
v -0.5 0.2 0.6
v -0.9 0.1 0.7
v -0.8 0.1 0.7
v -0.5 0.1 0.7
v -0.4 0.1 0.7
v -0.9 0.2 0.7
v -0.8 0.2 0.7
v -0.5 0.2 0.7
v -0.4 0.2 0.7
v -0.9 0.1 -0.6
v -0.8 0.1 -0.6
v -0.4 0.1 -0.6
v -0.3 0.1 -0.6
v -0.9 0.2 -0.6
v -0.8 0.2 -0.6
v -0.4 0.2 -0.6
v -0.3 0.2 -0.6
v -0.8 0.1 -0.5
v -0.4 0.1 -0.5
v -0.8 0.2 -0.5
v -0.4 0.2 -0.5
v 0.1 0.1 -0.2
v 0.2 0.1 -0.2
v 0.1 0.2 -0.2
v 0.2 0.2 -0.2
v 0.2 0.1 -0.1
v 0.4 0.1 -0.1
v 0.9 0.1 -0.1
v 1 0.1 -0.1
v 0.2 0.2 -0.1
v 0.4 0.2 -0.1
v 0.9 0.2 -0.1
v 1 0.2 -0.1
v 0.4 0.1 0
v 0.9 0.1 0
v 0.4 0.2 0
v 0.9 0.2 0
v -0.9 0.1 0.3
v -0.8 0.1 0.3
v -0.9 0.2 0.3
v -0.8 0.2 0.3
v -0.8 0.1 0.4
v -0.7 0.1 0.4
v -0.1 0.1 0.4
v 0 0.1 0.4
v -0.8 0.2 0.4
v -0.7 0.2 0.4
v -0.1 0.2 0.4
v 0 0.2 0.4
v -0.7 0.1 0.5
v -0.1 0.1 0.5
v -0.7 0.2 0.5
v -0.1 0.2 0.5
v 0.1 0.1 0.8
v 0.2 0.1 0.8
v 0.1 0.2 0.8
v 0.2 0.2 0.8
v -0.9 0.1 0.9
v -0.8 0.1 0.9
v -0.5 0.1 0.9
v -0.4 0.1 0.9
v 0.2 0.1 0.9
v 0.8 0.1 0.9
v -0.9 0.2 0.9
v -0.8 0.2 0.9
v -0.5 0.2 0.9
v -0.4 0.2 0.9
v 0.2 0.2 0.9
v 0.8 0.2 0.9
v -0.8 0.1 1
v -0.5 0.1 1
v -0.8 0.2 1
v -0.5 0.2 1
v -0.9 0.1 -0.9
v -0.9 0.2 -0.9
v -0.9 0.1 -0.6
v -0.9 0.2 -0.6
v -0.9 0.1 -0.2
v -0.9 0.2 -0.2
v -0.9 0.1 0.3
v -0.9 0.2 0.3
v -0.9 0.1 0.7
v -0.9 0.2 0.7
v -0.9 0.1 0.9
v -0.9 0.2 0.9
v -0.8 0.1 -1
v -0.8 0.2 -1
v -0.8 0.1 -0.9
v -0.8 0.2 -0.9
v -0.8 0.1 -0.6
v -0.8 0.2 -0.6
v -0.8 0.1 -0.5
v -0.8 0.2 -0.5
v -0.8 0.1 -0.3
v -0.8 0.2 -0.3
v -0.8 0.1 -0.2
v -0.8 0.2 -0.2
v -0.8 0.1 0.3
v -0.8 0.2 0.3
v -0.8 0.1 0.4
v -0.8 0.2 0.4
v -0.8 0.1 0.6
v -0.8 0.2 0.6
v -0.8 0.1 0.7
v -0.8 0.2 0.7
v -0.8 0.1 0.9
v -0.8 0.2 0.9
v -0.8 0.1 1
v -0.8 0.2 1
v -0.7 0.1 -0.4
v -0.7 0.2 -0.4
v -0.7 0.1 -0.3
v -0.7 0.2 -0.3
v -0.7 0.1 0.4
v -0.7 0.2 0.4
v -0.7 0.1 0.5
v -0.7 0.2 0.5
v 0.1 0.1 -0.8
v 0.1 0.2 -0.8
v 0.1 0.1 -0.2
v 0.1 0.2 -0.2
v 0.1 0.1 0.3
v 0.1 0.2 0.3
v 0.1 0.1 0.8
v 0.1 0.2 0.8
v 0.2 0.1 -0.9
v 0.2 0.2 -0.9
v 0.2 0.1 -0.8
v 0.2 0.2 -0.8
v 0.2 0.1 -0.2
v 0.2 0.2 -0.2
v 0.2 0.1 -0.1
v 0.2 0.2 -0.1
v 0.2 0.1 0.2
v 0.2 0.2 0.2
v 0.2 0.1 0.3
v 0.2 0.2 0.3
v 0.2 0.1 0.8
v 0.2 0.2 0.8
v 0.2 0.1 0.9
v 0.2 0.2 0.9
v 0.4 0.1 -0.1
v 0.4 0.2 -0.1
v 0.4 0.1 0
v 0.4 0.2 0
v -0.5 0.1 0.6
v -0.5 0.2 0.6
v -0.5 0.1 0.7
v -0.5 0.2 0.7
v -0.5 0.1 0.9
v -0.5 0.2 0.9
v -0.5 0.1 1
v -0.5 0.2 1
v -0.4 0.1 -1
v -0.4 0.2 -1
v -0.4 0.1 -0.9
v -0.4 0.2 -0.9
v -0.4 0.1 -0.6
v -0.4 0.2 -0.6
v -0.4 0.1 -0.5
v -0.4 0.2 -0.5
v -0.4 0.1 0.7
v -0.4 0.2 0.7
v -0.4 0.1 0.9
v -0.4 0.2 0.9
v -0.3 0.1 -0.9
v -0.3 0.2 -0.9
v -0.3 0.1 -0.6
v -0.3 0.2 -0.6
v -0.2 0.1 -0.4
v -0.2 0.2 -0.4
v -0.2 0.1 -0.3
v -0.2 0.2 -0.3
v -0.1 0.1 -0.3
v -0.1 0.2 -0.3
v -0.1 0.1 -0.2
v -0.1 0.2 -0.2
v -0.1 0.1 0.4
v -0.1 0.2 0.4
v -0.1 0.1 0.5
v -0.1 0.2 0.5
v 0 0.1 -0.2
v 0 0.2 -0.2
v 0 0.1 0.4
v 0 0.2 0.4
v 0.6 0.1 0.2
v 0.6 0.2 0.2
v 0.6 0.1 0.3
v 0.6 0.2 0.3
v 0.7 0.1 0.3
v 0.7 0.2 0.3
v 0.7 0.1 0.4
v 0.7 0.2 0.4
v 0.8 0.1 0.4
v 0.8 0.2 0.4
v 0.8 0.1 0.9
v 0.8 0.2 0.9
v 0.9 0.1 -0.9
v 0.9 0.2 -0.9
v 0.9 0.1 -0.8
v 0.9 0.2 -0.8
v 0.9 0.1 -0.1
v 0.9 0.2 -0.1
v 0.9 0.1 0
v 0.9 0.2 0
v 1 0.1 -0.8
v 1 0.2 -0.8
v 1 0.1 -0.1
v 1 0.2 -0.1
v -0.9 0.1 -0.9
v -0.9 0.1 -0.6
v -0.9 0.1 -0.2
v -0.9 0.1 0.3
v -0.9 0.1 0.7
v -0.9 0.1 0.9
v -0.8 0.1 -1
v -0.8 0.1 -0.9
v -0.8 0.1 -0.8
v -0.8 0.1 -0.6
v -0.8 0.1 -0.5
v -0.8 0.1 -0.3
v -0.8 0.1 -0.2
v -0.8 0.1 -0.1
v -0.8 0.1 0
v -0.8 0.1 0.3
v -0.8 0.1 0.4
v -0.8 0.1 0.6
v -0.8 0.1 0.7
v -0.8 0.1 0.9
v -0.8 0.1 1
v -0.7 0.1 -0.9
v -0.7 0.1 -0.8
v -0.7 0.1 -0.7
v -0.7 0.1 -0.4
v -0.7 0.1 -0.3
v -0.7 0.1 -0.2
v -0.7 0.1 -0.1
v -0.7 0.1 0
v -0.7 0.1 0.3
v -0.7 0.1 0.4
v -0.7 0.1 0.5
v -0.6 0.1 -0.8
v -0.6 0.1 -0.7
v -0.6 0.1 -0.2
v -0.6 0.1 -0.1
v -0.6 0.1 0.1
v -0.6 0.1 0.2
v -0.6 0.1 0.7
v -0.6 0.1 0.8
v -0.5 0.1 -0.9
v -0.5 0.1 -0.8
v -0.5 0.1 0.1
v -0.5 0.1 0.2
v -0.5 0.1 0.6
v -0.5 0.1 0.7
v -0.5 0.1 0.8
v -0.5 0.1 0.9
v -0.5 0.1 1
v -0.4 0.1 -1
v -0.4 0.1 -0.9
v -0.4 0.1 -0.8
v -0.4 0.1 -0.6
v -0.4 0.1 -0.5
v -0.4 0.1 0.7
v -0.4 0.1 0.9
v -0.3 0.1 -0.9
v -0.3 0.1 -0.6
v -0.3 0.1 -0.1
v -0.3 0.1 0
v -0.2 0.1 -0.4
v -0.2 0.1 -0.3
v -0.2 0.1 -0.2
v -0.2 0.1 -0.1
v -0.2 0.1 0
v -0.2 0.1 0.3
v -0.2 0.1 0.4
v -0.1 0.1 -0.3
v -0.1 0.1 -0.2
v -0.1 0.1 0.3
v -0.1 0.1 0.4
v -0.1 0.1 0.5
v 0 0.1 -0.2
v 0 0.1 0.4
v 0.1 0.1 -0.8
v 0.1 0.1 -0.2
v 0.1 0.1 0.3
v 0.1 0.1 0.8
v 0.2 0.1 -0.9
v 0.2 0.1 -0.8
v 0.2 0.1 -0.4
v 0.2 0.1 -0.3
v 0.2 0.1 -0.2
v 0.2 0.1 -0.1
v 0.2 0.1 0.2
v 0.2 0.1 0.3
v 0.2 0.1 0.7
v 0.2 0.1 0.8
v 0.2 0.1 0.9
v 0.3 0.1 -0.7
v 0.3 0.1 -0.6
v 0.3 0.1 -0.4
v 0.3 0.1 -0.3
v 0.3 0.1 -0.2
v 0.3 0.1 0.4
v 0.3 0.1 0.5
v 0.3 0.1 0.7
v 0.3 0.1 0.8
v 0.4 0.1 -0.7
v 0.4 0.1 -0.6
v 0.4 0.1 -0.3
v 0.4 0.1 -0.1
v 0.4 0.1 0
v 0.4 0.1 0.4
v 0.4 0.1 0.5
v 0.6 0.1 0.2
v 0.6 0.1 0.3
v 0.6 0.1 0.4
v 0.6 0.1 0.5
v 0.6 0.1 0.6
v 0.7 0.1 -0.8
v 0.7 0.1 -0.7
v 0.7 0.1 -0.3
v 0.7 0.1 -0.2
v 0.7 0.1 0.3
v 0.7 0.1 0.4
v 0.7 0.1 0.5
v 0.7 0.1 0.6
v 0.7 0.1 0.8
v 0.8 0.1 -0.8
v 0.8 0.1 -0.7
v 0.8 0.1 -0.6
v 0.8 0.1 -0.3
v 0.8 0.1 -0.2
v 0.8 0.1 0.4
v 0.8 0.1 0.9
v 0.9 0.1 -0.9
v 0.9 0.1 -0.8
v 0.9 0.1 -0.7
v 0.9 0.1 -0.6
v 0.9 0.1 -0.1
v 0.9 0.1 0
v 1 0.1 -0.8
v 1 0.1 -0.1
v -0.9 0.2 -0.9
v -0.9 0.2 -0.6
v -0.9 0.2 -0.2
v -0.9 0.2 0.3
v -0.9 0.2 0.7
v -0.9 0.2 0.9
v -0.8 0.2 -1
v -0.8 0.2 -0.9
v -0.8 0.2 -0.8
v -0.8 0.2 -0.6
v -0.8 0.2 -0.5
v -0.8 0.2 -0.3
v -0.8 0.2 -0.2
v -0.8 0.2 -0.1
v -0.8 0.2 0
v -0.8 0.2 0.3
v -0.8 0.2 0.4
v -0.8 0.2 0.6
v -0.8 0.2 0.7
v -0.8 0.2 0.9
v -0.8 0.2 1
v -0.7 0.2 -0.9
v -0.7 0.2 -0.8
v -0.7 0.2 -0.7
v -0.7 0.2 -0.4
v -0.7 0.2 -0.3
v -0.7 0.2 -0.2
v -0.7 0.2 -0.1
v -0.7 0.2 0
v -0.7 0.2 0.3
v -0.7 0.2 0.4
v -0.7 0.2 0.5
v -0.6 0.2 -0.8
v -0.6 0.2 -0.7
v -0.6 0.2 -0.2
v -0.6 0.2 -0.1
v -0.6 0.2 0.1
v -0.6 0.2 0.2
v -0.6 0.2 0.7
v -0.6 0.2 0.8
v -0.5 0.2 -0.9
v -0.5 0.2 -0.8
v -0.5 0.2 0.1
v -0.5 0.2 0.2
v -0.5 0.2 0.6
v -0.5 0.2 0.7
v -0.5 0.2 0.8
v -0.5 0.2 0.9
v -0.5 0.2 1
v -0.4 0.2 -1
v -0.4 0.2 -0.9
v -0.4 0.2 -0.8
v -0.4 0.2 -0.6
v -0.4 0.2 -0.5
v -0.4 0.2 0.7
v -0.4 0.2 0.9
v -0.3 0.2 -0.9
v -0.3 0.2 -0.6
v -0.3 0.2 -0.1
v -0.3 0.2 0
v -0.2 0.2 -0.4
v -0.2 0.2 -0.3
v -0.2 0.2 -0.2
v -0.2 0.2 -0.1
v -0.2 0.2 0
v -0.2 0.2 0.3
v -0.2 0.2 0.4
v -0.1 0.2 -0.3
v -0.1 0.2 -0.2
v -0.1 0.2 0.3
v -0.1 0.2 0.4
v -0.1 0.2 0.5
v 0 0.2 -0.2
v 0 0.2 0.4
v 0.1 0.2 -0.8
v 0.1 0.2 -0.2
v 0.1 0.2 0.3
v 0.1 0.2 0.8
v 0.2 0.2 -0.9
v 0.2 0.2 -0.8
v 0.2 0.2 -0.4
v 0.2 0.2 -0.3
v 0.2 0.2 -0.2
v 0.2 0.2 -0.1
v 0.2 0.2 0.2
v 0.2 0.2 0.3
v 0.2 0.2 0.7
v 0.2 0.2 0.8
v 0.2 0.2 0.9
v 0.3 0.2 -0.7
v 0.3 0.2 -0.6
v 0.3 0.2 -0.4
v 0.3 0.2 -0.3
v 0.3 0.2 -0.2
v 0.3 0.2 0.4
v 0.3 0.2 0.5
v 0.3 0.2 0.7
v 0.3 0.2 0.8
v 0.4 0.2 -0.7
v 0.4 0.2 -0.6
v 0.4 0.2 -0.3
v 0.4 0.2 -0.1
v 0.4 0.2 0
v 0.4 0.2 0.4
v 0.4 0.2 0.5
v 0.6 0.2 0.2
v 0.6 0.2 0.3
v 0.6 0.2 0.4
v 0.6 0.2 0.5
v 0.6 0.2 0.6
v 0.7 0.2 -0.8
v 0.7 0.2 -0.7
v 0.7 0.2 -0.3
v 0.7 0.2 -0.2
v 0.7 0.2 0.3
v 0.7 0.2 0.4
v 0.7 0.2 0.5
v 0.7 0.2 0.6
v 0.7 0.2 0.8
v 0.8 0.2 -0.8
v 0.8 0.2 -0.7
v 0.8 0.2 -0.6
v 0.8 0.2 -0.3
v 0.8 0.2 -0.2
v 0.8 0.2 0.4
v 0.8 0.2 0.9
v 0.9 0.2 -0.9
v 0.9 0.2 -0.8
v 0.9 0.2 -0.7
v 0.9 0.2 -0.6
v 0.9 0.2 -0.1
v 0.9 0.2 0
v 1 0.2 -0.8
v 1 0.2 -0.1

# faces
f 3/2/1 2/2/1 1/2/1
f 4/2/1 2/2/1 3/2/1
f 11/2/1 6/2/1 5/2/1
f 12/2/1 6/2/1 11/2/1
f 13/2/1 8/2/1 7/2/1
f 14/2/1 8/2/1 13/2/1
f 15/1/1 10/1/1 9/1/1
f 16/1/1 10/1/1 15/1/1
f 21/1/1 18/1/1 17/1/1
f 22/1/1 18/1/1 21/1/1
f 23/1/1 20/1/1 19/1/1
f 24/1/1 20/1/1 23/1/1
f 27/1/1 26/1/1 25/1/1
f 28/1/1 26/1/1 27/1/1
f 33/1/1 30/1/1 29/1/1
f 34/1/1 30/1/1 33/1/1
f 35/1/1 32/1/1 31/1/1
f 36/1/1 32/1/1 35/1/1
f 41/1/1 38/1/1 37/1/1
f 42/1/1 38/1/1 41/1/1
f 43/1/1 40/1/1 39/1/1
f 44/1/1 40/1/1 43/1/1
f 47/2/1 46/2/1 45/2/1
f 48/2/1 46/2/1 47/2/1
f 53/2/1 50/2/1 49/2/1
f 54/2/1 50/2/1 53/2/1
f 55/2/1 52/2/1 51/2/1
f 56/2/1 52/2/1 55/2/1
f 59/2/1 58/2/1 57/2/1
f 60/2/1 58/2/1 59/2/1
f 63/2/1 62/2/1 61/2/1
f 64/2/1 62/2/1 63/2/1
f 69/2/1 66/2/1 65/2/1
f 70/2/1 66/2/1 69/2/1
f 71/2/1 68/2/1 67/2/1
f 72/2/1 68/2/1 71/2/1
f 73/2/2 74/2/2 77/2/2
f 77/2/2 74/2/2 78/2/2
f 75/2/2 76/2/2 79/2/2
f 79/2/2 76/2/2 80/2/2
f 81/2/2 82/2/2 83/2/2
f 83/2/2 82/2/2 84/2/2
f 85/1/2 86/1/2 87/1/2
f 87/1/2 86/1/2 88/1/2
f 89/1/2 90/1/2 93/1/2
f 93/1/2 90/1/2 94/1/2
f 91/1/2 92/1/2 95/1/2
f 95/1/2 92/1/2 96/1/2
f 97/1/2 98/1/2 99/1/2
f 99/1/2 98/1/2 100/1/2
f 101/1/2 102/1/2 103/1/2
f 103/1/2 102/1/2 104/1/2
f 105/1/2 106/1/2 109/1/2
f 109/1/2 106/1/2 110/1/2
f 107/1/2 108/1/2 111/1/2
f 111/1/2 108/1/2 112/1/2
f 113/1/2 114/1/2 115/1/2
f 115/1/2 114/1/2 116/1/2
f 117/2/2 118/2/2 119/2/2
f 119/2/2 118/2/2 120/2/2
f 121/2/2 122/2/2 127/2/2
f 127/2/2 122/2/2 128/2/2
f 123/2/2 124/2/2 129/2/2
f 129/2/2 124/2/2 130/2/2
f 125/2/2 126/2/2 131/2/2
f 131/2/2 126/2/2 132/2/2
f 133/2/2 134/2/2 135/2/2
f 135/2/2 134/2/2 136/2/2
f 139/2/3 138/2/3 137/2/3
f 140/2/3 138/2/3 139/2/3
f 143/1/3 142/1/3 141/1/3
f 144/1/3 142/1/3 143/1/3
f 147/2/3 146/2/3 145/2/3
f 148/2/3 146/2/3 147/2/3
f 151/2/3 150/2/3 149/2/3
f 152/2/3 150/2/3 151/2/3
f 155/2/3 154/2/3 153/2/3
f 156/2/3 154/2/3 155/2/3
f 159/1/3 158/1/3 157/1/3
f 160/1/3 158/1/3 159/1/3
f 163/1/3 162/1/3 161/1/3
f 164/1/3 162/1/3 163/1/3
f 167/2/3 166/2/3 165/2/3
f 168/2/3 166/2/3 167/2/3
f 171/2/3 170/2/3 169/2/3
f 172/2/3 170/2/3 171/2/3
f 175/1/3 174/1/3 173/1/3
f 176/1/3 174/1/3 175/1/3
f 179/1/3 178/1/3 177/1/3
f 180/1/3 178/1/3 179/1/3
f 183/1/3 182/1/3 181/1/3
f 184/1/3 182/1/3 183/1/3
f 187/2/3 186/2/3 185/2/3
f 188/2/3 186/2/3 187/2/3
f 191/1/3 190/1/3 189/1/3
f 192/1/3 190/1/3 191/1/3
f 195/1/3 194/1/3 193/1/3
f 196/1/3 194/1/3 195/1/3
f 199/2/3 198/2/3 197/2/3
f 200/2/3 198/2/3 199/2/3
f 203/2/3 202/2/3 201/2/3
f 204/2/3 202/2/3 203/2/3
f 207/1/3 206/1/3 205/1/3
f 208/1/3 206/1/3 207/1/3
f 209/2/4 210/2/4 211/2/4
f 211/2/4 210/2/4 212/2/4
f 213/2/4 214/2/4 215/2/4
f 215/2/4 214/2/4 216/2/4
f 217/2/4 218/2/4 219/2/4
f 219/2/4 218/2/4 220/2/4
f 221/2/4 222/2/4 223/2/4
f 223/2/4 222/2/4 224/2/4
f 225/2/4 226/2/4 227/2/4
f 227/2/4 226/2/4 228/2/4
f 229/2/4 230/2/4 231/2/4
f 231/2/4 230/2/4 232/2/4
f 233/1/4 234/1/4 235/1/4
f 235/1/4 234/1/4 236/1/4
f 237/1/4 238/1/4 239/1/4
f 239/1/4 238/1/4 240/1/4
f 241/1/4 242/1/4 243/1/4
f 243/1/4 242/1/4 244/1/4
f 245/1/4 246/1/4 247/1/4
f 247/1/4 246/1/4 248/1/4
f 249/2/4 250/2/4 251/2/4
f 251/2/4 250/2/4 252/2/4
f 253/2/4 254/2/4 255/2/4
f 255/2/4 254/2/4 256/2/4
f 257/2/4 258/2/4 259/2/4
f 259/2/4 258/2/4 260/2/4
f 261/1/4 262/1/4 263/1/4
f 263/1/4 262/1/4 264/1/4
f 265/1/4 266/1/4 267/1/4
f 267/1/4 266/1/4 268/1/4
f 269/1/4 270/1/4 271/1/4
f 271/1/4 270/1/4 272/1/4
f 280/2/5 274/2/5 273/2/5
f 281/2/5 274/2/5 280/2/5
f 282/2/5 274/2/5 281/2/5
f 285/1/5 276/1/5 275/1/5
f 286/1/5 276/1/5 285/1/5
f 287/1/5 276/1/5 286/1/5
f 288/1/5 276/1/5 287/1/5
f 291/2/5 278/2/5 277/2/5
f 292/2/5 278/2/5 291/2/5
f 294/2/5 280/2/5 279/2/5
f 294/2/5 281/2/5 280/2/5
f 295/1/5 282/1/5 281/1/5
f 295/2/5 281/2/5 294/2/5
f 296/1/5 282/1/5 295/1/5
f 298/1/5 285/1/5 284/1/5
f 299/2/5 286/2/5 285/2/5
f 299/1/5 285/1/5 298/1/5
f 300/1/5 287/1/5 286/1/5
f 300/2/5 286/2/5 299/2/5
f 301/2/5 288/2/5 287/2/5
f 301/1/5 287/1/5 300/1/5
f 302/1/5 289/1/5 288/1/5
f 302/2/5 288/2/5 301/2/5
f 303/1/5 289/1/5 302/1/5
f 305/1/5 295/1/5 294/1/5
f 305/2/5 296/2/5 295/2/5
f 306/1/5 282/1/5 296/1/5
f 306/2/5 296/2/5 305/2/5
f 307/2/5 299/2/5 298/2/5
f 307/1/5 300/1/5 299/1/5
f 308/2/5 301/2/5 300/2/5
f 308/1/5 300/1/5 307/1/5
f 308/2/5 303/2/5 302/2/5
f 308/2/5 302/2/5 301/2/5
f 309/2/5 303/2/5 308/2/5
f 310/2/5 303/2/5 309/2/5
f 311/1/5 292/1/5 291/1/5
f 311/2/5 291/2/5 290/2/5
f 312/1/5 292/1/5 311/1/5
f 313/2/5 294/2/5 279/2/5
f 313/1/5 305/1/5 294/1/5
f 313/1/5 306/1/5 305/1/5
f 314/1/5 306/1/5 313/1/5
f 315/1/5 310/1/5 309/1/5
f 315/2/5 308/2/5 307/2/5
f 315/2/5 309/2/5 308/2/5
f 316/2/5 303/2/5 310/2/5
f 316/1/5 310/1/5 315/1/5
f 317/2/5 312/2/5 311/2/5
f 317/2/5 311/2/5 290/2/5
f 318/2/5 312/2/5 317/2/5
f 319/1/5 292/1/5 312/1/5
f 319/2/5 312/2/5 318/2/5
f 320/2/5 293/2/5 292/2/5
f 320/1/5 292/1/5 319/1/5
f 321/2/5 293/2/5 320/2/5
f 322/2/5 314/2/5 313/2/5
f 322/2/5 313/2/5 279/2/5
f 323/2/5 314/2/5 322/2/5
f 324/1/5 306/1/5 314/1/5
f 324/2/5 314/2/5 323/2/5
f 325/2/5 283/2/5 282/2/5
f 325/1/5 306/1/5 324/1/5
f 325/1/5 282/1/5 306/1/5
f 326/2/5 283/2/5 325/2/5
f 327/2/5 319/2/5 318/2/5
f 327/2/5 320/2/5 319/2/5
f 328/2/5 320/2/5 327/2/5
f 329/2/5 324/2/5 323/2/5
f 329/2/5 325/2/5 324/2/5
f 330/2/5 325/2/5 329/2/5
f 331/2/5 315/2/5 307/2/5
f 331/2/5 316/2/5 315/2/5
f 332/2/5 316/2/5 331/2/5
f 333/1/5 298/1/5 297/1/5
f 334/2/5 307/2/5 298/2/5
f 334/1/5 298/1/5 333/1/5
f 334/2/5 331/2/5 307/2/5
f 335/2/5 331/2/5 334/2/5
f 336/1/5 332/1/5 331/1/5
f 336/2/5 331/2/5 335/2/5
f 337/2/5 316/2/5 332/2/5
f 337/1/5 332/1/5 336/1/5
f 338/2/5 303/2/5 316/2/5
f 338/2/5 316/2/5 337/2/5
f 339/1/5 304/1/5 303/1/5
f 339/2/5 303/2/5 338/2/5
f 340/1/5 335/1/5 334/1/5
f 341/2/5 336/2/5 335/2/5
f 341/1/5 335/1/5 340/1/5
f 341/2/5 337/2/5 336/2/5
f 341/2/5 338/2/5 337/2/5
f 342/1/5 339/1/5 338/1/5
f 342/2/5 338/2/5 341/2/5
f 343/1/5 304/1/5 339/1/5
f 343/1/5 339/1/5 342/1/5
f 344/1/5 304/1/5 343/1/5
f 345/1/5 342/1/5 341/1/5
f 345/1/5 343/1/5 342/1/5
f 346/1/5 343/1/5 345/1/5
f 352/1/5 348/1/5 347/1/5
f 353/1/5 348/1/5 352/1/5
f 354/1/5 348/1/5 353/1/5
f 355/1/5 348/1/5 354/1/5
f 358/2/5 350/2/5 349/2/5
f 359/2/5 350/2/5 358/2/5
f 360/2/5 350/2/5 359/2/5
f 362/2/5 353/2/5 352/2/5
f 363/2/5 353/2/5 362/2/5
f 364/1/5 354/1/5 353/1/5
f 364/2/5 353/2/5 363/2/5
f 365/2/5 355/2/5 354/2/5
f 365/1/5 354/1/5 364/1/5
f 366/1/5 356/1/5 355/1/5
f 366/2/5 355/2/5 365/2/5
f 367/1/5 359/1/5 358/1/5
f 368/1/5 359/1/5 367/1/5
f 369/2/5 361/2/5 360/2/5
f 369/1/5 359/1/5 368/1/5
f 369/2/5 360/2/5 359/2/5
f 370/2/5 361/2/5 369/2/5
f 371/1/5 363/1/5 362/1/5
f 371/2/5 362/2/5 352/2/5
f 372/2/5 365/2/5 364/2/5
f 372/1/5 363/1/5 371/1/5
f 372/2/5 364/2/5 363/2/5
f 373/1/5 366/1/5 365/1/5
f 373/2/5 365/2/5 372/2/5
f 374/1/5 356/1/5 366/1/5
f 374/1/5 366/1/5 373/1/5
f 376/2/5 368/2/5 367/2/5
f 376/1/5 367/1/5 358/1/5
f 377/1/5 369/1/5 368/1/5
f 377/2/5 368/2/5 376/2/5
f 377/1/5 370/1/5 369/1/5
f 378/2/5 358/2/5 357/2/5
f 379/1/5 376/1/5 358/1/5
f 379/2/5 358/2/5 378/2/5
f 379/1/5 377/1/5 376/1/5
f 380/1/5 377/1/5 379/1/5
f 381/1/5 370/1/5 377/1/5
f 381/1/5 377/1/5 380/1/5
f 382/1/5 370/1/5 381/1/5
f 383/2/5 371/2/5 352/2/5
f 383/1/5 352/1/5 351/1/5
f 383/2/5 373/2/5 372/2/5
f 383/2/5 374/2/5 373/2/5
f 383/2/5 372/2/5 371/2/5
f 384/2/5 374/2/5 383/2/5
f 385/2/5 374/2/5 384/2/5
f 386/2/5 374/2/5 385/2/5
f 387/2/5 380/2/5 379/2/5
f 388/1/5 381/1/5 380/1/5
f 388/2/5 380/2/5 387/2/5
f 389/2/5 382/2/5 381/2/5
f 389/1/5 381/1/5 388/1/5
f 390/1/5 370/1/5 382/1/5
f 390/2/5 382/2/5 389/2/5
f 391/2/5 361/2/5 370/2/5
f 391/1/5 370/1/5 390/1/5
f 392/1/5 383/1/5 351/1/5
f 392/1/5 384/1/5 383/1/5
f 393/2/5 385/2/5 384/2/5
f 393/1/5 384/1/5 392/1/5
f 394/2/5 385/2/5 393/2/5
f 395/1/5 386/1/5 385/1/5
f 395/2/5 385/2/5 394/2/5
f 396/2/5 374/2/5 386/2/5
f 396/1/5 386/1/5 395/1/5
f 397/2/5 389/2/5 388/2/5
f 397/2/5 390/2/5 389/2/5
f 397/2/5 391/2/5 390/2/5
f 398/2/5 361/2/5 391/2/5
f 398/2/5 391/2/5 397/2/5
f 399/1/5 392/1/5 351/1/5
f 400/2/5 393/2/5 392/2/5
f 400/1/5 392/1/5 399/1/5
f 401/1/5 394/1/5 393/1/5
f 401/2/5 393/2/5 400/2/5
f 402/2/5 396/2/5 395/2/5
f 402/1/5 394/1/5 401/1/5
f 402/2/5 395/2/5 394/2/5
f 403/2/5 374/2/5 396/2/5
f 403/2/5 396/2/5 402/2/5
f 403/1/5 375/1/5 374/1/5
f 404/1/5 375/1/5 403/1/5
f 405/1/5 402/1/5 401/1/5
f 405/1/5 403/1/5 402/1/5
f 405/1/5 401/1/5 400/1/5
f 406/1/5 403/1/5 405/1/5
f 407/2/6 408/2/6 414/2/6
f 414/2/6 408/2/6 415/2/6
f 415/2/6 408/2/6 416/2/6
f 409/1/6 410/1/6 419/1/6
f 419/1/6 410/1/6 420/1/6
f 420/1/6 410/1/6 421/1/6
f 421/1/6 410/1/6 422/1/6
f 411/2/6 412/2/6 425/2/6
f 425/2/6 412/2/6 426/2/6
f 413/2/6 414/2/6 428/2/6
f 414/2/6 415/2/6 428/2/6
f 415/1/6 416/1/6 429/1/6
f 428/2/6 415/2/6 429/2/6
f 429/1/6 416/1/6 430/1/6
f 418/1/6 419/1/6 432/1/6
f 419/2/6 420/2/6 433/2/6
f 432/1/6 419/1/6 433/1/6
f 420/1/6 421/1/6 434/1/6
f 433/2/6 420/2/6 434/2/6
f 421/2/6 422/2/6 435/2/6
f 434/1/6 421/1/6 435/1/6
f 422/1/6 423/1/6 436/1/6
f 435/2/6 422/2/6 436/2/6
f 436/1/6 423/1/6 437/1/6
f 428/1/6 429/1/6 439/1/6
f 429/2/6 430/2/6 439/2/6
f 430/1/6 416/1/6 440/1/6
f 439/2/6 430/2/6 440/2/6
f 432/2/6 433/2/6 441/2/6
f 433/1/6 434/1/6 441/1/6
f 434/2/6 435/2/6 442/2/6
f 441/1/6 434/1/6 442/1/6
f 436/2/6 437/2/6 442/2/6
f 435/2/6 436/2/6 442/2/6
f 442/2/6 437/2/6 443/2/6
f 443/2/6 437/2/6 444/2/6
f 425/1/6 426/1/6 445/1/6
f 424/2/6 425/2/6 445/2/6
f 445/1/6 426/1/6 446/1/6
f 413/2/6 428/2/6 447/2/6
f 428/1/6 439/1/6 447/1/6
f 439/1/6 440/1/6 447/1/6
f 447/1/6 440/1/6 448/1/6
f 443/1/6 444/1/6 449/1/6
f 441/2/6 442/2/6 449/2/6
f 442/2/6 443/2/6 449/2/6
f 444/2/6 437/2/6 450/2/6
f 449/1/6 444/1/6 450/1/6
f 445/2/6 446/2/6 451/2/6
f 424/2/6 445/2/6 451/2/6
f 451/2/6 446/2/6 452/2/6
f 446/1/6 426/1/6 453/1/6
f 452/2/6 446/2/6 453/2/6
f 426/2/6 427/2/6 454/2/6
f 453/1/6 426/1/6 454/1/6
f 454/2/6 427/2/6 455/2/6
f 447/2/6 448/2/6 456/2/6
f 413/2/6 447/2/6 456/2/6
f 456/2/6 448/2/6 457/2/6
f 448/1/6 440/1/6 458/1/6
f 457/2/6 448/2/6 458/2/6
f 416/2/6 417/2/6 459/2/6
f 458/1/6 440/1/6 459/1/6
f 440/1/6 416/1/6 459/1/6
f 459/2/6 417/2/6 460/2/6
f 452/2/6 453/2/6 461/2/6
f 453/2/6 454/2/6 461/2/6
f 461/2/6 454/2/6 462/2/6
f 457/2/6 458/2/6 463/2/6
f 458/2/6 459/2/6 463/2/6
f 463/2/6 459/2/6 464/2/6
f 441/2/6 449/2/6 465/2/6
f 449/2/6 450/2/6 465/2/6
f 465/2/6 450/2/6 466/2/6
f 431/1/6 432/1/6 467/1/6
f 432/2/6 441/2/6 468/2/6
f 467/1/6 432/1/6 468/1/6
f 441/2/6 465/2/6 468/2/6
f 468/2/6 465/2/6 469/2/6
f 465/1/6 466/1/6 470/1/6
f 469/2/6 465/2/6 470/2/6
f 466/2/6 450/2/6 471/2/6
f 470/1/6 466/1/6 471/1/6
f 450/2/6 437/2/6 472/2/6
f 471/2/6 450/2/6 472/2/6
f 437/1/6 438/1/6 473/1/6
f 472/2/6 437/2/6 473/2/6
f 468/1/6 469/1/6 474/1/6
f 469/2/6 470/2/6 475/2/6
f 474/1/6 469/1/6 475/1/6
f 470/2/6 471/2/6 475/2/6
f 471/2/6 472/2/6 475/2/6
f 472/1/6 473/1/6 476/1/6
f 475/2/6 472/2/6 476/2/6
f 473/1/6 438/1/6 477/1/6
f 476/1/6 473/1/6 477/1/6
f 477/1/6 438/1/6 478/1/6
f 475/1/6 476/1/6 479/1/6
f 476/1/6 477/1/6 479/1/6
f 479/1/6 477/1/6 480/1/6
f 481/1/6 482/1/6 486/1/6
f 486/1/6 482/1/6 487/1/6
f 487/1/6 482/1/6 488/1/6
f 488/1/6 482/1/6 489/1/6
f 483/2/6 484/2/6 492/2/6
f 492/2/6 484/2/6 493/2/6
f 493/2/6 484/2/6 494/2/6
f 486/2/6 487/2/6 496/2/6
f 496/2/6 487/2/6 497/2/6
f 487/1/6 488/1/6 498/1/6
f 497/2/6 487/2/6 498/2/6
f 488/2/6 489/2/6 499/2/6
f 498/1/6 488/1/6 499/1/6
f 489/1/6 490/1/6 500/1/6
f 499/2/6 489/2/6 500/2/6
f 492/1/6 493/1/6 501/1/6
f 501/1/6 493/1/6 502/1/6
f 494/2/6 495/2/6 503/2/6
f 502/1/6 493/1/6 503/1/6
f 493/2/6 494/2/6 503/2/6
f 503/2/6 495/2/6 504/2/6
f 496/1/6 497/1/6 505/1/6
f 486/2/6 496/2/6 505/2/6
f 498/2/6 499/2/6 506/2/6
f 505/1/6 497/1/6 506/1/6
f 497/2/6 498/2/6 506/2/6
f 499/1/6 500/1/6 507/1/6
f 506/2/6 499/2/6 507/2/6
f 500/1/6 490/1/6 508/1/6
f 507/1/6 500/1/6 508/1/6
f 501/2/6 502/2/6 510/2/6
f 492/1/6 501/1/6 510/1/6
f 502/1/6 503/1/6 511/1/6
f 510/2/6 502/2/6 511/2/6
f 503/1/6 504/1/6 511/1/6
f 491/2/6 492/2/6 512/2/6
f 492/1/6 510/1/6 513/1/6
f 512/2/6 492/2/6 513/2/6
f 510/1/6 511/1/6 513/1/6
f 513/1/6 511/1/6 514/1/6
f 511/1/6 504/1/6 515/1/6
f 514/1/6 511/1/6 515/1/6
f 515/1/6 504/1/6 516/1/6
f 486/2/6 505/2/6 517/2/6
f 485/1/6 486/1/6 517/1/6
f 506/2/6 507/2/6 517/2/6
f 507/2/6 508/2/6 517/2/6
f 505/2/6 506/2/6 517/2/6
f 517/2/6 508/2/6 518/2/6
f 518/2/6 508/2/6 519/2/6
f 519/2/6 508/2/6 520/2/6
f 513/2/6 514/2/6 521/2/6
f 514/1/6 515/1/6 522/1/6
f 521/2/6 514/2/6 522/2/6
f 515/2/6 516/2/6 523/2/6
f 522/1/6 515/1/6 523/1/6
f 516/1/6 504/1/6 524/1/6
f 523/2/6 516/2/6 524/2/6
f 504/2/6 495/2/6 525/2/6
f 524/1/6 504/1/6 525/1/6
f 485/1/6 517/1/6 526/1/6
f 517/1/6 518/1/6 526/1/6
f 518/2/6 519/2/6 527/2/6
f 526/1/6 518/1/6 527/1/6
f 527/2/6 519/2/6 528/2/6
f 519/1/6 520/1/6 529/1/6
f 528/2/6 519/2/6 529/2/6
f 520/2/6 508/2/6 530/2/6
f 529/1/6 520/1/6 530/1/6
f 522/2/6 523/2/6 531/2/6
f 523/2/6 524/2/6 531/2/6
f 524/2/6 525/2/6 531/2/6
f 525/2/6 495/2/6 532/2/6
f 531/2/6 525/2/6 532/2/6
f 485/1/6 526/1/6 533/1/6
f 526/2/6 527/2/6 534/2/6
f 533/1/6 526/1/6 534/1/6
f 527/1/6 528/1/6 535/1/6
f 534/2/6 527/2/6 535/2/6
f 529/2/6 530/2/6 536/2/6
f 535/1/6 528/1/6 536/1/6
f 528/2/6 529/2/6 536/2/6
f 530/2/6 508/2/6 537/2/6
f 536/2/6 530/2/6 537/2/6
f 508/1/6 509/1/6 537/1/6
f 537/1/6 509/1/6 538/1/6
f 535/1/6 536/1/6 539/1/6
f 536/1/6 537/1/6 539/1/6
f 534/1/6 535/1/6 539/1/6
f 539/1/6 537/1/6 540/1/6
